<svg xmlns="http://www.w3.org/2000/svg" height="868" preserveAspectRatio="xMidYMid meet" width="872"><rect id="backgroundrect" width="100%" height="100%" x="0" y="0" fill="none" stroke="none"/><g class="currentLayer" style=""><title>Layer 1</title><g id="svg_3" class=""><title transform="translate(0,-0.00008239746239269152) translate(1,1.1478668451309204) translate(-1,-1) scale(0.9991945028305054,0.9975835084915161) translate(1,1) translate(-1.0008060932159424,-1.0024223327636719) scale(0.9403446912765503,0.9450930953025818) translate(1.0008060932159424,1.0024223327636719) translate(-1.064297080039978,-1.0606598854064941) scale(0.9348456263542175,0.8974761962890625) translate(1.064297080039978,1.0606598854064941) translate(-1.138473629951477,-1.1818251609802246) scale(0.9651523232460022,0.9980960488319397) translate(1.138473629951477,1.1818251609802246) translate(-1.179579257965088,-1.1840795278549194) scale(1,1.0019075870513916) translate(1.179579257965088,1.1840795278549194) translate(-1.179579257965088,-1.181825041770935) scale(1.0028504133224487,1) translate(1.179579257965088,1.181825041770935) "/><rect fill="none" height="868.1487662991093" id="canvas_background" width="872.2809596796804" x="0" y="0.14778444766852772"/></g><g id="svg_4" class=""><title transform="translate(0,-0.00008239746239269152) translate(1,1.1478668451309204) translate(0.8264462351799011,-82.64462280273438) translate(-77.68595123291016,2.4793386459350586) "/><g fill="#000000" id="svg_1" transform="translate(0,1024) scale(0.10000000149011612,-0.10000000149011612) "><path d="m4061.404965400696,10229.174997329712 c-1036,-77 -1981,-503 -2723,-1228 c-976,-952 -1444,-2300 -1271,-3654 c216,-1693 1410,-3103 3050,-3602 c1268,-386 2679,-157 3754,608 c1321,941 2008,2502 1804,4100 c-216,1693 -1410,3103 -3050,3602 c-488,149 -1057,212 -1564,174 zm2555,-1665 c47,-22 72,-73 59,-121 c-6,-21 -410,-744 -898,-1607 l-888,-1570 l20,-40 c11,-23 266,-491 567,-1041 c571,-1044 576,-1053 544,-1111 c-28,-54 -32,-54 -516,-54 c-502,0 -491,-1 -563,74 c-45,45 -1194,2150 -1188,2174 c7,25 1775,3160 1808,3204 c15,21 39,47 54,59 c59,47 76,48 534,49 c372,0 439,-2 467,-16 zm-3347,-1101 c74,-35 113,-94 401,-598 c281,-491 284,-497 269,-523 c-9,-15 -206,-364 -438,-777 c-232,-412 -438,-769 -456,-792 c-19,-23 -57,-53 -87,-68 l-53,-26 l-446,3 l-446,3 l-26,24 c-35,33 -51,83 -37,121 c5,17 202,370 436,784 l425,754 l-276,478 c-312,540 -311,539 -251,599 l35,35 l457,0 c412,0 461,-2 493,-17 z" fill="#126567" id="svg_2"/></g></g></g></svg>